<?xml version="1.0" standalone="no"?><!DOCTYPE svg PUBLIC "-//W3C//DTD SVG 1.1//EN" "http://www.w3.org/Graphics/SVG/1.1/DTD/svg11.dtd"><svg t="1696754920844" class="icon" viewBox="0 0 1024 1024" version="1.1" xmlns="http://www.w3.org/2000/svg" p-id="15401" width="48" height="48" xmlns:xlink="http://www.w3.org/1999/xlink"><path d="M861.820372 408.899296 844.66142 391.339278 827.501458 373.773199 810.541523 356.012143 793.399745 338.452125 776.234731 320.891096 759.074769 303.325017 742.133018 285.56396 724.974066 268.003942 707.814104 250.442914 690.867302 232.882896 673.70734 215.33399 656.547377 197.572934 639.406609 180.012916 622.440613 162.450877 605.280651 144.884798 588.122709 127.124752 581.271251 120.057102 574.203601 113.390519 566.935924 107.141164 559.467208 101.494925 551.992431 96.24773 544.12265 91.402612 536.252868 87.158587 528.183059 83.326741 520.11325 79.889899 511.642375 77.061223 503.154325 74.637654 494.483422 72.633335 485.794335 71.012907 476.916332 69.792535 467.82719 68.990404 458.755221 68.790376 449.46504 68.790376 439.992005 69.39147 430.501796 70.193601 421.010577 71.612991 411.119302 73.235439 401.440178 75.45696 391.548903 77.868406 381.457601 80.704154 371.365288 83.932886 361.072948 87.559653 350.780607 91.402612 340.488266 95.646636 329.978724 100.474581 319.480294 105.319699 309.00611 110.766921 298.294519 116.431346 285.178553 123.700033 272.062588 131.368777 258.940561 139.238558 246.025633 147.308367 233.510761 155.985332 220.996899 164.674419 208.682055 173.9646 196.770297 183.637663 184.867632 193.528937 173.554947 204.022316 162.462495 214.91474 151.568051 226.427453 141.27571 238.341231 131.183397 250.861154 121.494171 263.777092 112.416141 277.494151 103.726043 291.830489 95.456206 306.554759 87.586424 322.093284 80.518775 338.452125 73.851181 355.411049 67.803875 372.971067 62.156625 391.539306 57.310496 410.703588 53.066472 430.687175 49.641753 451.690097 46.818128 473.280978 44.595597 496.089201 43.193381 519.496497 42.574103 543.925147 42.774131 569.361008 43.794475 595.792968 49.841781 624.45352 56.910441 652.10585 64.98025 678.554984 73.651153 704.190873 83.3424 728.81854 93.834768 752.227857 105.146443 774.834031 117.250146 796.426934 129.964036 816.810577 143.498241 836.393098 157.816395 854.961338 172.753826 872.521356 188.49844 888.861002 204.656243 904.418721 221.596983 918.936902 239.158011 932.459995 257.325184 945.192069 275.888372 956.686597 295.270866 967.179976 315.052405 976.869202 335.238041 985.341088 356.026791 993.010841 377.212566 999.677425 398.817591 1005.330737 421.010577 1009.975827 443.416724 1013.818786 466.223936 1016.423189 489.437266 1018.245664 513.0456 1019.047796 536.854972 1018.864942 561.087635 1017.644571 585.498101 1015.623077 607.503182 1012.799452 629.107197 1008.973668 650.299033 1003.92145 670.884725 998.055988 691.06733 991.20655 710.649852 983.336769 729.819185 974.648691 748.381362 964.957445 766.343456 954.665104 783.909536 943.370604 800.668433 931.256798 817.008079 918.334798 832.747642 904.618749 847.685073 890.282412 862.22851 875.144953 875.944559 859.4064 889.059514 843.042508 901.574386 825.89972 913.287127 808.338691 924.381599 790.17758 934.678991 771.39719 944.370238 752.026819 953.243189 732.244269 961.311988 712.060654 968.579666 691.268873 975.24726 670.266962 980.89451 648.680121 985.939656 626.876079 989.983653 604.682083 993.209354 582.075908 995.630903 559.268696 997.25234 536.255394 742.534084 536.255394 506.997284 771.798256 271.260456 533.431769 501.551072 303.325017 739.912508 522.738362Z" fill="#009FE8" p-id="15402"></path><path d="M469.048572 43.160548 480.147085 43.560604 491.040519 44.580948 496.504916 45.182042 501.952138 45.783135 507.39835 46.585267 512.846582 47.404573 518.291784 48.606761 523.739006 49.60892 529.002365 51.02932 534.431403 52.449719 539.695771 54.053983 545.142994 55.67441 550.389178 57.495876 555.635362 59.500195 560.888618 61.522698 566.134802 63.945258 571.380986 66.366806 576.627171 68.990404 581.672317 71.612991 586.918501 74.637654 591.964657 77.679491 597.210842 80.904182 602.256998 84.334962 607.303154 87.977893 612.349311 91.803678 617.194429 95.847675 622.239575 99.873487 627.086714 104.31855 632.13085 108.96364 636.98304 113.60772 883.413275 368.325977 978.270912 273.468339 965.957079 261.354533 953.860447 249.039688 941.748661 236.925882 929.428766 224.605987 917.313949 212.510365 904.999105 200.396559 892.903483 188.082725 880.789677 175.968919 868.476854 163.855113 856.362037 151.541279 844.059316 139.438586 831.94551 127.124752 819.831704 115.010946 807.51787 102.914314 795.422248 90.60149 783.302381 78.481623 774.212228 71.413973 764.940231 64.947417 755.850078 58.899101 746.559897 53.251851 737.2879 48.005667 727.797691 43.360576 718.524684 38.915514 709.028414 35.089729 699.538205 31.646826 689.846958 28.423145 680.374934 25.59952 670.682677 23.376989 660.99244 21.355496 651.101165 19.752242 641.410929 18.331843 631.518644 17.529711 621.638482 16.928617 611.747207 16.510377 601.655904 16.727579 591.763619 17.128645 581.672317 17.729739 571.580004 18.731898 561.488701 19.95227 551.391337 21.573708 541.098997 23.376989 531.006684 25.398482 520.714343 27.822051 510.422003 30.444638 500.130672 33.268264 489.838332 36.292927 479.339902 39.734819Z" fill="#009FE8" p-id="15403"></path></svg>