<?xml version="1.0" standalone="no"?><!DOCTYPE svg PUBLIC "-//W3C//DTD SVG 1.1//EN" "http://www.w3.org/Graphics/SVG/1.1/DTD/svg11.dtd"><svg t="1697698973796" class="icon" viewBox="0 0 1024 1024" version="1.1" xmlns="http://www.w3.org/2000/svg" p-id="5722" xmlns:xlink="http://www.w3.org/1999/xlink" width="48" height="48"><path d="M657.066667 373.333333c-21.333333-66.133333-83.2-110.933333-155.733334-110.933333s-132.266667 44.8-155.733333 110.933333c-72.533333 10.666667-128 74.666667-128 151.466667 0 83.2 70.4 153.6 153.6 153.6h262.4c83.2 0 153.6-70.4 153.6-153.6-2.133333-78.933333-59.733333-140.8-130.133333-151.466667z m-25.6 281.6H369.066667c-72.533333 0-130.133333-59.733333-130.133334-130.133333 0-64 49.066667-119.466667 110.933334-128 8.533333-2.133333 14.933333-6.4 17.066666-14.933333 19.2-57.6 74.666667-96 134.4-96s115.2 38.4 134.4 96c2.133333 8.533333 8.533333 12.8 17.066667 14.933333 64 10.666667 110.933333 66.133333 110.933333 128 0 70.4-59.733333 130.133333-132.266666 130.133333z m343.466666 290.133334L840.533333 810.666667c72.533333-83.2 119.466667-192 119.466667-309.333334C960 247.466667 755.2 42.666667 501.333333 42.666667S42.666667 247.466667 42.666667 501.333333 247.466667 960 501.333333 960c117.333333 0 226.133333-44.8 307.2-119.466667l134.4 134.4c4.266667 4.266667 10.666667 6.4 14.933334 6.4s10.666667-2.133333 14.933333-6.4c10.666667-8.533333 10.666667-21.333333 2.133333-29.866666z m-473.6-29.866667C270.933333 915.2 85.333333 729.6 85.333333 501.333333S270.933333 85.333333 501.333333 85.333333s413.866667 185.6 413.866667 413.866667-185.6 416-413.866667 416z" p-id="5723" fill="#a6ce3a"></path></svg>