<?xml version="1.0" standalone="no"?><!DOCTYPE svg PUBLIC "-//W3C//DTD SVG 1.1//EN" "http://www.w3.org/Graphics/SVG/1.1/DTD/svg11.dtd"><svg t="1668580845532" class="icon" viewBox="0 0 1024 1024" version="1.1" xmlns="http://www.w3.org/2000/svg" p-id="2658" xmlns:xlink="http://www.w3.org/1999/xlink" width="128" height="128"><path d="M512.512 110.848c-222.72 0-403.285333 166.4-403.285333 371.584 0 128.682667 52.010667 226.176 134.613333 289.024H243.626667l9.984 129.792v0.170667c0 0.725333 0 1.322667 0.170666 1.962666v0.256a13.056 13.056 0 0 0 18.986667 9.386667l0.469333-0.341333L396.8 841.258667c36.437333 8.362667 75.392 12.757333 115.626667 12.757333 222.72 0 403.285333-166.357333 403.285333-371.626667 0-205.226667-180.608-371.584-403.370667-371.584l0.170667 0.042667zM443.306667 30.72a557.141333 557.141333 0 0 1 68.48-4.437333c16.213333 0 32 0.853333 47.744 2.218666l2.432-26.197333a558.464 558.464 0 0 0-122.24 2.346667l3.541333 26.112 0.042667-0.042667z m162.005333 4.010667c39.04 7.04 76.16 18.602667 111.36 33.92l10.752-24.192c-5.632-2.389333-11.221333-4.778667-16.938667-7.04-32.512-12.8-66.176-22.357333-100.48-28.629334l-4.693333 25.941334z m391.210667 450.389333a425.386667 425.386667 0 0 1-17.28 113.28l25.173333 7.466667a450.133333 450.133333 0 0 0 18.389333-120.789334l-26.282666 0.042667zM287.786667 77.397333A517.930667 517.930667 0 0 1 398.122667 38.912L392.362667 13.141333a518.869333 518.869333 0 0 0-116.053334 40.533334l11.477334 23.722666z m582.4 59.690667a512.213333 512.213333 0 0 0-99.370667-71.381333l-13.269333 23.082666c34.602667 18.986667 66.602667 41.856 94.890666 68.096l17.749334-19.712v-0.085333z m-223.744 803.754667c40.32-10.24 78.72-25.216 114.602666-43.946667l-13.44-22.741333c-33.536 17.621333-69.589333 31.488-107.562666 41.258666l6.4 25.429334zM156.885333 170.88c26.88-27.221333 57.472-51.2 90.88-71.466667l-13.952-22.570666c-29.781333 18.005333-57.6 38.997333-82.986666 62.848-4.352 4.010667-8.533333 8.149333-12.8 12.330666l18.730666 18.816 0.128 0.042667z m831.146667 481.28l-24.234667-10.069333a446.805333 446.805333 0 0 1-57.770666 99.498666l21.12 15.744a470.826667 470.826667 0 0 0 60.757333-105.173333h0.128zM884.309333 189.141333a449.706667 449.706667 0 0 1 65.450667 95.061334l23.68-11.733334a471.552 471.552 0 0 0-69.418667-100.949333l-19.84 17.621333h0.128z m108.970667 128.128l-24.234667 10.410667c13.354667 35.328 22.229333 72.661333 25.770667 111.36l26.24-2.602667a445.610667 445.610667 0 0 0-27.776-119.168zM272.469333 974.890667l-41.344 18.133333-14.165333-43.733333-24.96 8.106666 18.688 57.472a14.08 14.08 0 0 0 7.125333 8.021334 13.013333 13.013333 0 0 0 10.624 0l54.741334-24.021334-10.709334-23.978666z m163.114667-50.901334c-3.328-0.682667-6.698667-1.152-10.112-1.749333l-19.84-3.370667a13.269333 13.269333 0 0 0-7.338667 0.981334l-83.242666 36.394666 11.562666 23.637334 78.72-34.261334c5.333333 0.896 10.666667 1.749333 15.829334 2.517334 2.901333 0.725333 5.930667 1.109333 8.917333 1.621333l5.504-25.770667z m159.061333 0.853334c-27.008 4.437333-54.656 6.656-82.858666 6.656-11.648 0-22.4-0.64-32.938667-1.621334l-0.810667 26.24c10.709333 1.024 21.802667 1.706667 33.749334 1.706667 29.781333 0 59.008-2.474667 87.381333-7.082667l-4.437333-25.856-0.085334-0.042666zM64.725333 303.616c15.786667-35.2 36.352-68.181333 60.8-98.218667l-20.053333-17.365333A464.384 464.384 0 0 0 41.130667 291.584l-0.426667 0.896 24.021333 11.136zM876.032 776.96a490.538667 490.538667 0 0 1-88.32 73.728l14.464 21.973333a511.274667 511.274667 0 0 0 93.44-78.037333l-19.584-17.664zM41.386667 620.842667c-8.021333-33.962667-12.501333-71.509333-13.781334-113.962667H1.322667c1.28 45.696 6.186667 85.546667 14.72 121.301333l25.344-7.338666zM22.954667 338.133333c-12.672 38.826667-19.968 79.061333-21.76 120.021334l26.24 1.28a425.301333 425.301333 0 0 1 20.778666-113.578667l-25.258666-7.722667z m179.157333 565.76l-25.173333-77.44a13.056 13.056 0 0 0-4.48-6.272 501.333333 501.333333 0 0 1-28.16-23.808l-18.005334 19.029334c8.277333 7.850667 17.408 15.445333 26.837334 23.082666l23.936 73.258667 25.045333-7.850667z m-89.813333-140.458666a318.421333 318.421333 0 0 1-57.813334-98.773334l-24.448 9.770667a342.016 342.016 0 0 0 62.634667 106.538667l19.626667-17.536z" fill="#3a76f0" p-id="2659"></path></svg>