<?xml version="1.0" standalone="no"?><!DOCTYPE svg PUBLIC "-//W3C//DTD SVG 1.1//EN" "http://www.w3.org/Graphics/SVG/1.1/DTD/svg11.dtd"><svg t="1697699221065" class="icon" viewBox="0 0 1024 1024" version="1.1" xmlns="http://www.w3.org/2000/svg" p-id="11149" xmlns:xlink="http://www.w3.org/1999/xlink" width="48" height="48"><path d="M587.721263 425.208998a198.290675 198.290675 0 0 1-65.953514 14.337721v98.022216a9.773546 9.773546 0 1 1-19.547093 0V439.451134a199.915617 199.915617 0 0 1-66.192476-14.33772h-30.300383l-150.64165 59.214785v315.429852h68.773266v-204.981611a9.797442 9.797442 0 0 1 19.594885 0v214.683469l1.385979 214.348921h157.523757v-201.253803a9.773546 9.773546 0 0 1 19.547092 0v201.444973h157.093624l1.672734-214.348922v-214.874638a9.797442 9.797442 0 0 1 19.594885 0v204.933819h68.629889v-315.429852L618.260608 425.065621zM511.922514 331.440306a94.103239 94.103239 0 1 0-94.151032-94.103239 94.151031 94.151031 0 0 0 94.151032 94.103239z" fill="#1296db" p-id="11150"></path><path d="M511.922514 420.095211a182.997106 182.997106 0 0 0 182.710352-181.611126 4.301316 4.301316 0 0 1 0-2.198451 182.949314 182.949314 0 0 0-180.703071-181.611126 8.74601 8.74601 0 0 1-4.062354 0 182.949314 182.949314 0 0 0-180.798656 181.611126v2.198451a182.997106 182.997106 0 0 0 182.853729 181.611126z m0-296.31289a113.698124 113.698124 0 1 1-113.698124 113.698123 113.745916 113.745916 0 0 1 113.698124-113.841501zM189.753934 73.265752a9.797442 9.797442 0 0 0 9.55848-9.797442V19.642677h77.375898a9.797442 9.797442 0 0 0 0-19.594885H189.753934a9.797442 9.797442 0 0 0-9.558481 9.797443v53.670867a9.797442 9.797442 0 0 0 9.558481 9.74965zM843.888536 407.239055V353.615981a9.797442 9.797442 0 1 0-19.594884 0v43.825632h-77.423691a9.797442 9.797442 0 0 0 0 19.594885h87.221133a9.797442 9.797442 0 0 0 9.797442-9.797443zM746.869961 19.642677h77.423691v43.873425a9.797442 9.797442 0 0 0 19.594884 0V9.797442a9.797442 9.797442 0 0 0-9.55848-9.797442h-87.460095a9.797442 9.797442 0 0 0 0 19.594885zM286.772509 407.239055a9.797442 9.797442 0 0 0-9.797442-9.797442H199.599168v-43.825632a9.55848 9.55848 0 0 0-9.55848-9.797443 9.55848 9.55848 0 0 0-9.55848 9.797443v53.623074a9.797442 9.797442 0 0 0 9.55848 9.558481h87.221133a9.797442 9.797442 0 0 0 9.510688-9.558481z" fill="#1296db" p-id="11151"></path></svg>